<svg width="21" height="16" viewBox="0 0 21 16" fill="none" xmlns="http://www.w3.org/2000/svg">
<path d="M2.25391 16C1.70391 16 1.23307 15.8042 0.841406 15.4125C0.44974 15.0208 0.253906 14.55 0.253906 14V2C0.253906 1.45 0.44974 0.979167 0.841406 0.5875C1.23307 0.195833 1.70391 0 2.25391 0H18.2539C18.8039 0 19.2747 0.195833 19.6664 0.5875C20.0581 0.979167 20.2539 1.45 20.2539 2V14C20.2539 14.55 20.0581 15.0208 19.6664 15.4125C19.2747 15.8042 18.8039 16 18.2539 16H2.25391ZM10.2539 9L2.25391 4V14H18.2539V4L10.2539 9ZM10.2539 7L18.2539 2H2.25391L10.2539 7ZM2.25391 4V2V14V4Z" fill="#F4F3F3"/>
</svg>
