<svg width="33" height="32" viewBox="0 0 33 32" fill="none" xmlns="http://www.w3.org/2000/svg">
<path d="M17.5885 26.584C20.2783 26.2417 22.7367 24.8882 24.4643 22.7984C26.1918 20.7086 27.0588 18.0394 26.889 15.3333C26.7193 12.6272 25.5254 10.0873 23.5502 8.22983C21.575 6.37235 18.9666 5.33668 16.2552 5.33332C13.5405 5.3313 10.9271 6.36444 8.94766 8.22223C6.96818 10.08 5.77153 12.6226 5.60153 15.332C5.43154 18.0414 6.30099 20.7137 8.03273 22.8043C9.76448 24.895 12.2282 26.2467 14.9219 26.584V18.6667H12.2552V16H14.9219V13.7947C14.9219 12.012 15.1085 11.3653 15.4552 10.7133C15.7966 10.0682 16.3244 9.54084 16.9699 9.19999C17.4792 8.92666 18.1125 8.76266 19.2192 8.69199C19.6579 8.66399 20.2259 8.69866 20.9232 8.79866V11.332H20.2565C19.0339 11.332 18.5285 11.3893 18.2272 11.5507C18.0475 11.6432 17.9011 11.7896 17.8085 11.9693C17.6485 12.2707 17.5899 12.5693 17.5899 13.7933V16H20.9232L20.2565 18.6667H17.5899L17.5885 26.584ZM16.2552 29.3333C8.89121 29.3333 2.92188 23.364 2.92188 16C2.92188 8.63599 8.89121 2.66666 16.2552 2.66666C23.6192 2.66666 29.5885 8.63599 29.5885 16C29.5885 23.364 23.6192 29.3333 16.2552 29.3333Z" fill="#F4F3F3"/>
</svg>
