<svg width="33" height="32" viewBox="0 0 33 32" fill="none" xmlns="http://www.w3.org/2000/svg">
<path d="M16.2539 10C15.0672 10 13.9072 10.3519 12.9205 11.0112C11.9338 11.6705 11.1648 12.6075 10.7106 13.7039C10.2565 14.8003 10.1377 16.0067 10.3692 17.1705C10.6007 18.3344 11.1722 19.4035 12.0113 20.2426C12.8504 21.0818 13.9195 21.6532 15.0834 21.8847C16.2473 22.1162 17.4537 21.9974 18.55 21.5433C19.6464 21.0892 20.5834 20.3201 21.2427 19.3334C21.902 18.3467 22.2539 17.1867 22.2539 16C22.2523 14.4092 21.6196 12.884 20.4947 11.7592C19.3699 10.6343 17.8447 10.0017 16.2539 10ZM16.2539 20C15.4628 20 14.6894 19.7654 14.0316 19.3259C13.3738 18.8864 12.8611 18.2616 12.5584 17.5307C12.2556 16.7998 12.1764 15.9956 12.3308 15.2196C12.4851 14.4437 12.8661 13.731 13.4255 13.1716C13.9849 12.6122 14.6976 12.2312 15.4735 12.0769C16.2495 11.9225 17.0537 12.0017 17.7846 12.3045C18.5155 12.6072 19.1403 13.1199 19.5798 13.7777C20.0193 14.4355 20.2539 15.2089 20.2539 16C20.2539 17.0609 19.8325 18.0783 19.0823 18.8284C18.3322 19.5786 17.3148 20 16.2539 20ZM22.2539 3H10.2539C8.398 3.00199 6.61868 3.74012 5.30635 5.05245C3.99403 6.36477 3.25589 8.14409 3.25391 10V22C3.25589 23.8559 3.99403 25.6352 5.30635 26.9476C6.61868 28.2599 8.398 28.998 10.2539 29H22.2539C24.1098 28.998 25.8891 28.2599 27.2015 26.9476C28.5138 25.6352 29.2519 23.8559 29.2539 22V10C29.2519 8.14409 28.5138 6.36477 27.2015 5.05245C25.8891 3.74012 24.1098 3.00199 22.2539 3ZM27.2539 22C27.2539 23.3261 26.7271 24.5979 25.7894 25.5355C24.8518 26.4732 23.58 27 22.2539 27H10.2539C8.92782 27 7.65605 26.4732 6.71837 25.5355C5.78069 24.5979 5.25391 23.3261 5.25391 22V10C5.25391 8.67392 5.78069 7.40215 6.71837 6.46447C7.65605 5.52678 8.92782 5 10.2539 5H22.2539C23.58 5 24.8518 5.52678 25.7894 6.46447C26.7271 7.40215 27.2539 8.67392 27.2539 10V22ZM24.2539 9.5C24.2539 9.79667 24.1659 10.0867 24.0011 10.3334C23.8363 10.58 23.602 10.7723 23.3279 10.8858C23.0538 10.9994 22.7522 11.0291 22.4613 10.9712C22.1703 10.9133 21.903 10.7704 21.6932 10.5607C21.4835 10.3509 21.3406 10.0836 21.2827 9.79264C21.2248 9.50166 21.2546 9.20006 21.3681 8.92597C21.4816 8.65189 21.6739 8.41762 21.9206 8.2528C22.1672 8.08797 22.4572 8 22.7539 8C23.1517 8 23.5333 8.15804 23.8146 8.43934C24.0959 8.72064 24.2539 9.10218 24.2539 9.5Z" fill="#F4F3F3"/>
</svg>
