<svg width="33" height="32" viewBox="0 0 33 32" fill="none" xmlns="http://www.w3.org/2000/svg">
<path d="M25.654 6.54667C24.4316 5.31191 22.9755 4.3329 21.3708 3.66674C19.7661 3.00059 18.0448 2.66062 16.3073 2.66667C9.0273 2.66667 3.09397 8.60001 3.09397 15.88C3.09397 18.2133 3.7073 20.48 4.85397 22.48L2.9873 29.3333L9.9873 27.4933C11.9206 28.5467 14.094 29.1067 16.3073 29.1067C23.5873 29.1067 29.5206 23.1733 29.5206 15.8933C29.5206 12.36 28.1473 9.04001 25.654 6.54667ZM16.3073 26.8667C14.334 26.8667 12.4006 26.3333 10.7073 25.3333L10.3073 25.0933L6.1473 26.1867L7.25397 22.1333L6.9873 21.72C5.89097 19.9693 5.30882 17.9457 5.3073 15.88C5.3073 9.82667 10.2406 4.89334 16.294 4.89334C19.2273 4.89334 21.9873 6.04001 24.054 8.12001C25.0773 9.13863 25.8882 10.3502 26.4398 11.6846C26.9914 13.0189 27.2727 14.4495 27.2673 15.8933C27.294 21.9467 22.3606 26.8667 16.3073 26.8667ZM22.334 18.6533C22.0006 18.4933 20.374 17.6933 20.0806 17.5733C19.774 17.4667 19.5606 17.4133 19.334 17.7333C19.1073 18.0667 18.4806 18.8133 18.294 19.0267C18.1073 19.2533 17.9073 19.28 17.574 19.1067C17.2406 18.9467 16.174 18.5867 14.9206 17.4667C13.934 16.5867 13.2806 15.5067 13.0806 15.1733C12.894 14.84 13.054 14.6667 13.2273 14.4933C13.374 14.3467 13.5606 14.1067 13.7206 13.92C13.8806 13.7333 13.9473 13.5867 14.054 13.3733C14.1606 13.1467 14.1073 12.96 14.0273 12.8C13.9473 12.64 13.2806 11.0133 13.014 10.3467C12.7473 9.70668 12.4673 9.78667 12.2673 9.77334H11.6273C11.4006 9.77334 11.054 9.85334 10.7473 10.1867C10.454 10.52 9.60064 11.32 9.60064 12.9467C9.60064 14.5733 10.7873 16.1467 10.9473 16.36C11.1073 16.5867 13.2806 19.92 16.5873 21.3467C17.374 21.6933 17.9873 21.8933 18.4673 22.04C19.254 22.2933 19.974 22.2533 20.5473 22.1733C21.1873 22.08 22.5073 21.3733 22.774 20.6C23.054 19.8267 23.054 19.1733 22.9606 19.0267C22.8673 18.88 22.6673 18.8133 22.334 18.6533Z" fill="#F4F3F3"/>
</svg>
