<svg width="21" height="20" viewBox="0 0 21 20" fill="none" xmlns="http://www.w3.org/2000/svg">
<path d="M17.3037 2.91C16.3869 1.98392 15.2949 1.24967 14.0913 0.75005C12.8878 0.250433 11.5968 -0.00454115 10.2937 -1.46553e-06C4.83371 -1.46553e-06 0.383711 4.45 0.383711 9.91C0.383711 11.66 0.843711 13.36 1.70371 14.86L0.303711 20L5.55371 18.62C7.00371 19.41 8.63371 19.83 10.2937 19.83C15.7537 19.83 20.2037 15.38 20.2037 9.92C20.2037 7.27 19.1737 4.78 17.3037 2.91ZM10.2937 18.15C8.81371 18.15 7.36371 17.75 6.09371 17L5.79371 16.82L2.67371 17.64L3.50371 14.6L3.30371 14.29C2.48146 12.977 2.04485 11.4592 2.04371 9.91C2.04371 5.37 5.74371 1.67 10.2837 1.67C12.4837 1.67 14.5537 2.53 16.1037 4.09C16.8712 4.85396 17.4794 5.76266 17.8931 6.76342C18.3068 7.76419 18.5177 8.83711 18.5137 9.92C18.5337 14.46 14.8337 18.15 10.2937 18.15ZM14.8137 11.99C14.5637 11.87 13.3437 11.27 13.1237 11.18C12.8937 11.1 12.7337 11.06 12.5637 11.3C12.3937 11.55 11.9237 12.11 11.7837 12.27C11.6437 12.44 11.4937 12.46 11.2437 12.33C10.9937 12.21 10.1937 11.94 9.25371 11.1C8.51371 10.44 8.02371 9.63 7.87371 9.38C7.73371 9.13 7.85371 9 7.98371 8.87C8.09371 8.76 8.23371 8.58 8.35371 8.44C8.47371 8.3 8.52371 8.19 8.60371 8.03C8.68371 7.86 8.64371 7.72 8.58371 7.6C8.52371 7.48 8.02371 6.26 7.82371 5.76C7.62371 5.28 7.41371 5.34 7.26371 5.33H6.78371C6.61371 5.33 6.35371 5.39 6.12371 5.64C5.90371 5.89 5.26371 6.49 5.26371 7.71C5.26371 8.93 6.15371 10.11 6.27371 10.27C6.39371 10.44 8.02371 12.94 10.5037 14.01C11.0937 14.27 11.5537 14.42 11.9137 14.53C12.5037 14.72 13.0437 14.69 13.4737 14.63C13.9537 14.56 14.9437 14.03 15.1437 13.45C15.3537 12.87 15.3537 12.38 15.2837 12.27C15.2137 12.16 15.0637 12.11 14.8137 11.99Z" fill="#F4F3F3"/>
</svg>
